<svg width="120" height="24" viewBox="0 0 120 24" fill="none" xmlns="http://www.w3.org/2000/svg">
<g clip-path="url(#clip0_6_10)">
<path fill-rule="evenodd" clip-rule="evenodd" d="M96.1871 2.21749L96.1815 23.5866C98.2586 23.8004 102.811 23.67 105.146 23.6678C119.178 23.6541 124.574 11.0892 115.612 3.43908C111.333 -0.214002 102.746 0.40557 96.2012 0.495508L96.1871 2.21773V2.21749ZM111.661 17.3032C113.17 16.2127 114.144 14.586 114.214 12.2428C114.217 12.1745 114.219 12.106 114.219 12.0368C114.267 5.46963 107.703 4.65239 101.834 4.93098L101.824 19.1677C105.132 19.3993 108.35 19.2309 110.698 17.9478C111.027 17.7682 111.351 17.5525 111.661 17.3032Z" fill="white"/>
<path fill-rule="evenodd" clip-rule="evenodd" d="M28.5425 23.5654L34.2094 23.6814L34.2289 13.5055C36.1004 15.6999 42.39 21.8237 43.5792 23.6688L50.3332 23.6615C49.6445 22.2631 44.6469 17.4309 43.3383 15.3599C49.6521 14.2831 51.8526 7.90283 48.0072 3.16074C46.513 1.31787 43.5366 0.4765 39.8106 0.475038C36.5146 0.473819 31.6769 0.232279 28.5662 0.530853L28.5425 23.5654ZM34.2348 4.90247H40.4237C42.5384 4.90247 44.2682 6.39704 44.2682 8.22359C44.2682 10.0504 42.5381 11.5447 40.4237 11.5447H34.2348V4.90222V4.90247Z" fill="white"/>
<path fill-rule="evenodd" clip-rule="evenodd" d="M52.92 23.66L70.8391 23.6666L70.8348 19.2082L58.5682 19.2257L58.5787 14.0968L70.7479 14.0766L70.7288 9.8917L58.5691 9.88122L58.5634 4.88589L70.8165 4.87078L70.8461 0.463577L52.9578 0.476495L52.92 23.66Z" fill="white"/>
<path fill-rule="evenodd" clip-rule="evenodd" d="M25.6494 17.9647L20.632 16.1627C17.7981 21.4232 6.06729 20.2877 5.80715 12.2311C5.62827 6.6922 11.4501 3.66137 16.6241 5.06016C18.572 5.58687 19.5426 6.55132 20.6909 7.60109L25.6421 6.02998C24.935 4.06768 22.076 1.89479 19.7553 1.01759C10.9797 -2.29914 -0.0597995 2.78149 0.000297711 12.0351C0.0886096 25.6135 21.5848 27.6977 25.6494 17.9644V17.9647Z" fill="white"/>
<path fill-rule="evenodd" clip-rule="evenodd" d="M74.6828 23.6449L92.5852 23.669L92.5838 19.224L80.3542 19.2279L80.3576 15.0925L90.6872 10.7765L80.3542 10.7328L80.3629 4.89466L92.5607 4.87029L92.6075 0.459923L74.7223 0.475522L74.6828 23.6449Z" fill="white"/>
</g>
<defs>
<clipPath id="clip0_6_10">
<rect width="120" height="24" fill="white"/>
</clipPath>
</defs>
</svg>
